<svg width="50" height="50" viewBox="0 0 50 50" fill="none" xmlns="http://www.w3.org/2000/svg">
<path d="M41.1063 23.2729C40.8482 20.0088 39.6293 16.8942 37.6033 14.3219C35.5774 11.7496 32.8351 9.83476 29.7223 8.81894C26.6096 7.80313 23.2657 7.73179 20.1125 8.61392C16.9592 9.49604 14.1378 11.2921 12.0039 13.7757C9.87013 16.2592 8.5195 19.319 8.12239 22.5692C7.72528 25.8193 8.29948 29.1143 9.77256 32.0386C11.2456 34.9628 13.5516 37.3854 16.3998 39.0008C19.2479 40.6162 22.5105 41.352 25.7763 41.1155M9.10522 19.0526H40.0526M9.10522 30.1053H25.5M23.6578 8C20.5545 12.973 18.9093 18.7171 18.9093 24.5789C18.9093 30.4408 20.5545 36.1849 23.6578 41.1579M25.5 8C28.6107 12.9819 30.2564 18.7388 30.2489 24.6121M37.4737 35.6316V35.65M41.3808 39.5387C42.1538 38.7659 42.6803 37.7812 42.8937 36.7091C43.1071 35.6371 42.9977 34.5259 42.5795 33.516C42.1613 32.5061 41.4529 31.6429 40.5441 31.0356C39.6353 30.4282 38.5668 30.1041 37.4737 30.1041C36.3806 30.1041 35.3121 30.4282 34.4033 31.0356C33.4944 31.6429 32.7861 32.5061 32.3679 33.516C31.9497 34.5259 31.8403 35.6371 32.0537 36.7091C32.267 37.7812 32.7935 38.7659 33.5666 39.5387C34.3366 40.3105 35.6389 41.4637 37.4737 43C39.4097 41.3605 40.7139 40.2074 41.3808 39.5387Z" stroke="#4A4A4A" stroke-width="2.5" stroke-linecap="round" stroke-linejoin="round"/>
</svg>
