<svg width="50" height="50" viewBox="0 0 50 50" fill="none" xmlns="http://www.w3.org/2000/svg">
<path d="M33.7458 6H15.2542C13.0008 6 11.8742 6 10.9655 6.31618C9.24237 6.91575 7.88954 8.30842 7.30713 10.0823C7 11.0177 7 12.1776 7 14.4973V41.7276C7 43.3964 8.91527 44.2818 10.1269 43.1731C10.8387 42.5218 11.9113 42.5218 12.6231 43.1731L13.5625 44.0327C14.81 45.1743 16.69 45.1743 17.9375 44.0327C19.185 42.8911 21.065 42.8911 22.3125 44.0327C23.56 45.1743 25.44 45.1743 26.6875 44.0327C27.935 42.8911 29.815 42.8911 31.0625 44.0327C32.31 45.1743 34.19 45.1743 35.4375 44.0327L36.3769 43.1731C37.0887 42.5218 38.1613 42.5218 38.8731 43.1731C40.0847 44.2818 42 43.3964 42 41.7276V14.4973C42 12.1776 42 11.0177 41.6929 10.0823C41.1105 8.30842 39.7576 6.91575 38.0345 6.31618C37.1258 6 35.9992 6 33.7458 6Z" stroke="#303030" stroke-width="3"/>
<path d="M19.6387 22.3339L22.4164 25.445L29.3609 17.6672" stroke="#303030" stroke-width="3" stroke-linecap="round" stroke-linejoin="round"/>
<path d="M15.75 32.25H33.25" stroke="#303030" stroke-width="3" stroke-linecap="round"/>
</svg>
