<svg width="50" height="50" viewBox="0 0 50 50" fill="none" xmlns="http://www.w3.org/2000/svg">
<path d="M8.33301 19.9992V15.8326C8.33301 11.6826 11.683 8.33258 15.833 8.33258H19.9997" stroke="#676767" stroke-width="3" stroke-linecap="round" stroke-linejoin="round"/>
<path d="M30 8.33258H34.1667C38.3167 8.33258 41.6667 11.6826 41.6667 15.8326V19.9992" stroke="#676767" stroke-width="3" stroke-linecap="round" stroke-linejoin="round"/>
<path d="M41.667 31.6674V34.1674C41.667 38.3174 38.317 41.6674 34.167 41.6674H31.667" stroke="#676767" stroke-width="3" stroke-linecap="round" stroke-linejoin="round"/>
<path d="M19.9997 41.6667H15.833C11.683 41.6667 8.33301 38.3167 8.33301 34.1667V30" stroke="#676767" stroke-width="3" stroke-linecap="round" stroke-linejoin="round"/>
<path d="M33.2223 20.6674V29.0008C33.2223 32.3341 31.5557 34.0008 28.2223 34.0008H21.5557C18.2223 34.0008 16.5557 32.3341 16.5557 29.0008V20.6674C16.5557 17.3341 18.2223 15.6674 21.5557 15.6674H28.2223C31.5557 15.6674 33.2223 17.3341 33.2223 20.6674Z" stroke="#676767" stroke-width="3" stroke-linecap="round" stroke-linejoin="round"/>
<path d="M36.6663 25H13.333" stroke="#676767" stroke-width="3" stroke-linecap="round" stroke-linejoin="round"/>
</svg>
