<svg width="32" height="35" viewBox="0 0 32 35" fill="none" xmlns="http://www.w3.org/2000/svg">
<path fill-rule="evenodd" clip-rule="evenodd" d="M7.95692 6.60843e-05C8.03578 0.000100336 8.11579 0.000135073 8.19701 0.000135073H23.803C23.8842 0.000135073 23.9642 0.000100336 24.0431 6.60843e-05C25.7116 -0.000658733 26.8598 -0.00115758 27.8269 0.332655C29.6533 0.96308 31.0713 2.42111 31.6793 4.25791C32.001 5.22997 32.0006 6.38551 31.9999 8.10132C31.9999 8.17811 31.9999 8.25602 31.9999 8.33509V31.1324C31.9999 33.5177 29.1659 34.9377 27.2994 33.2434C27.1689 33.125 26.9848 33.125 26.8543 33.2434L26.0616 33.963C24.5384 35.3457 22.2307 35.3457 20.7076 33.963C20.125 33.4342 19.2595 33.4342 18.677 33.963C17.1538 35.3457 14.8462 35.3457 13.323 33.963C12.7405 33.4342 11.875 33.4342 11.2924 33.963C9.76928 35.3457 7.46159 35.3457 5.93843 33.963L5.14566 33.2434C5.01524 33.125 4.83107 33.125 4.70065 33.2434C2.83411 34.9377 0.000110618 33.5177 0.000110618 31.1324V8.33508C0.000110618 8.25602 8.21548e-05 8.17812 5.40827e-05 8.10133C-0.000572306 6.38552 -0.000994146 5.22997 0.32073 4.25791C0.928662 2.42111 2.34668 0.96308 4.17307 0.332655C5.14015 -0.00115758 6.28842 -0.00065883 7.95692 6.60843e-05ZM8.19701 2.44199C6.19319 2.44199 5.50297 2.45906 4.982 2.63888C3.89996 3.01238 3.03454 3.88626 2.65942 5.01964C2.47713 5.5704 2.46163 6.29666 2.46163 8.33508V31.1324C2.46163 31.3263 2.55996 31.4447 2.68334 31.5013C2.74761 31.5308 2.81046 31.5384 2.86284 31.5314C2.90902 31.5253 2.96877 31.5056 3.03891 31.4419C4.10997 30.4696 5.73634 30.4696 6.80739 31.4419L7.60016 32.1615C8.1827 32.6903 9.04817 32.6903 9.63071 32.1615C11.1539 30.7789 13.4616 30.7789 14.9847 32.1615C15.5673 32.6903 16.4327 32.6903 17.0153 32.1615C18.5384 30.7789 20.8461 30.7789 22.3693 32.1615C22.9518 32.6903 23.8173 32.6903 24.3998 32.1615L25.1926 31.4419C26.2637 30.4696 27.89 30.4696 28.9611 31.4419C29.0312 31.5056 29.091 31.5253 29.1372 31.5314C29.1895 31.5384 29.2524 31.5308 29.3167 31.5013C29.44 31.4447 29.5384 31.3263 29.5384 31.1324V8.33509C29.5384 6.29666 29.5229 5.5704 29.3406 5.01964C28.9655 3.88626 28.1 3.01238 27.018 2.63888C26.497 2.45906 25.8068 2.44199 23.803 2.44199H8.19701ZM6.30772 10.1745C6.30772 9.50022 6.85875 8.95359 7.53848 8.95359H25.2051C25.8848 8.95359 26.4358 9.50022 26.4358 10.1745C26.4358 10.8488 25.8848 11.3954 25.2051 11.3954H7.53848C6.85875 11.3954 6.30772 10.8488 6.30772 10.1745ZM6.30772 16.8722C6.30772 16.1979 6.85875 15.6512 7.53848 15.6512H11.2051C11.8848 15.6512 12.4358 16.1979 12.4358 16.8722C12.4358 17.5465 11.8848 18.0931 11.2051 18.0931H7.53848C6.85875 18.0931 6.30772 17.5465 6.30772 16.8722ZM6.30772 23.5698C6.30772 22.8955 6.85875 22.3489 7.53848 22.3489H11.2051C11.8848 22.3489 12.4358 22.8955 12.4358 23.5698C12.4358 24.2441 11.8848 24.7907 11.2051 24.7907H7.53848C6.85875 24.7907 6.30772 24.2441 6.30772 23.5698Z" fill="#212121"/>
<path d="M17 17.1892H23.571C24.3586 17.1892 24.9985 17.696 24.9985 18.3197V19.5671" stroke="#212121" stroke-width="1.8" stroke-miterlimit="10" stroke-linecap="round" stroke-linejoin="round"/>
<path d="M18.5013 15.9999L17 17.1889L18.5013 18.3778" stroke="#212121" stroke-width="1.8" stroke-miterlimit="10" stroke-linecap="round" stroke-linejoin="round"/>
<path d="M24.9985 23.1987H18.4274C17.6399 23.1987 17 22.6919 17 22.0682V20.8208" stroke="#212121" stroke-width="1.8" stroke-miterlimit="10" stroke-linecap="round" stroke-linejoin="round"/>
<path d="M23.499 24.3883L25.0003 23.1993L23.499 22.0103" stroke="#212121" stroke-width="1.8" stroke-miterlimit="10" stroke-linecap="round" stroke-linejoin="round"/>
</svg>
