<svg width="50" height="50" viewBox="0 0 50 50" fill="none" xmlns="http://www.w3.org/2000/svg">
<path d="M20 28.5024C20 30.4424 21.5 32.0024 23.34 32.0024H27.1C28.7 32.0024 30 30.6424 30 28.9424C30 27.1224 29.2 26.4624 28.02 26.0424L22 23.9424C20.82 23.5224 20.02 22.8824 20.02 21.0424C20.02 19.3624 21.32 17.9824 22.92 17.9824H26.68C28.52 17.9824 30.02 19.5424 30.02 21.4824" stroke="#303030" stroke-width="3" stroke-linecap="round" stroke-linejoin="round"/>
<path d="M25.001 16.0024V34.0024" stroke="#303030" stroke-width="3" stroke-linecap="round" stroke-linejoin="round"/>
<path d="M45 25C45 36.04 36.04 45 25 45C13.96 45 5 36.04 5 25C5 13.96 13.96 5 25 5" stroke="#303030" stroke-width="3" stroke-linecap="round" stroke-linejoin="round"/>
<path d="M35 7.0022V15.0022H43" stroke="#303030" stroke-width="3" stroke-linecap="round" stroke-linejoin="round"/>
<path d="M45 5L35 15" stroke="#303030" stroke-width="3" stroke-linecap="round" stroke-linejoin="round"/>
</svg>
