<svg width="50" height="50" viewBox="0 0 50 50" fill="none" xmlns="http://www.w3.org/2000/svg">
<path d="M18.2353 10.1053H14.1176C13.0256 10.1053 11.9782 10.5378 11.206 11.3077C10.4338 12.0776 10 13.1217 10 14.2105V38.8421C10 39.9309 10.4338 40.9751 11.206 41.745C11.9782 42.5148 13.0256 42.9474 14.1176 42.9474H25.8468M18.2353 10.1053C18.2353 9.01648 18.6691 7.97229 19.4413 7.2024C20.2135 6.43252 21.2609 6 22.3529 6H26.4706C27.5627 6 28.61 6.43252 29.3822 7.2024C30.1544 7.97229 30.5882 9.01648 30.5882 10.1053M18.2353 10.1053C18.2353 11.194 18.6691 12.2382 19.4413 13.0081C20.2135 13.778 21.2609 14.2105 22.3529 14.2105H26.4706C27.5627 14.2105 28.61 13.778 29.3822 13.0081C30.1544 12.2382 30.5882 11.194 30.5882 10.1053M38.8235 24.4737V14.2105C38.8235 13.1217 38.3897 12.0776 37.6175 11.3077C36.8453 10.5378 35.798 10.1053 34.7059 10.1053H30.5882M16.6797 20.8611H29.0327M16.6797 27.45H21.8268H26.9739M39.8529 39.8684L45 45M16.6797 34.08H24M30.5882 35.7632C30.5882 37.1241 31.1305 38.4294 32.0958 39.3917C33.061 40.3541 34.3702 40.8947 35.7353 40.8947C37.1004 40.8947 38.4096 40.3541 39.3748 39.3917C40.3401 38.4294 40.8824 37.1241 40.8824 35.7632C40.8824 34.4022 40.3401 33.0969 39.3748 32.1346C38.4096 31.1722 37.1004 30.6316 35.7353 30.6316C34.3702 30.6316 33.061 31.1722 32.0958 32.1346C31.1305 33.0969 30.5882 34.4022 30.5882 35.7632Z" stroke="#4A4A4A" stroke-width="3" stroke-linecap="round" stroke-linejoin="round"/>
</svg>
