<svg width="50" height="50" viewBox="0 0 50 50" fill="none" xmlns="http://www.w3.org/2000/svg">
<path fill-rule="evenodd" clip-rule="evenodd" d="M31.9767 13.8076V18.6242C35.1613 19.2743 37.5581 22.1057 37.5581 25.5C37.5581 28.8943 35.1613 31.7257 31.9767 32.3758V37.1924C33.906 37.1878 35.37 37.1642 36.5539 37.0431C37.9847 36.8967 38.851 36.6197 39.5221 36.1688C40.1823 35.7251 40.7491 35.1551 41.1903 34.4911C41.6386 33.8163 41.9141 32.9451 42.0597 31.5063C42.2076 30.044 42.2093 28.1569 42.2093 25.5C42.2093 22.8431 42.2076 20.956 42.0597 19.4937C41.9141 18.0549 41.6386 17.1837 41.1903 16.5089C40.7491 15.8449 40.1823 15.2749 39.5221 14.8312C38.851 14.3803 37.9847 14.1033 36.5539 13.9569C35.37 13.8358 33.906 13.8122 31.9767 13.8076ZM29.186 37.1935L29.186 13.8065L20.814 13.8065V37.1935H29.186ZM18.0233 37.1924V32.3758C14.8387 31.7257 12.4419 28.8943 12.4419 25.5C12.4419 22.1057 14.8387 19.2743 18.0233 18.6242V13.8076C16.094 13.8122 14.63 13.8358 13.4461 13.9569C12.0153 14.1033 11.149 14.3803 10.4779 14.8312C9.81773 15.2749 9.25086 15.8449 8.80972 16.5089C8.36136 17.1837 8.08586 18.0549 7.94031 19.4937C7.79239 20.956 7.7907 22.8431 7.7907 25.5C7.7907 28.1569 7.79239 30.044 7.94031 31.5063C8.08586 32.9451 8.36136 33.8163 8.80972 34.4911C9.25086 35.1551 9.81773 35.7251 10.4779 36.1688C11.149 36.6197 12.0153 36.8967 13.4461 37.0431C14.63 37.1642 16.094 37.1878 18.0233 37.1924ZM18.0233 21.5299C16.3974 22.1078 15.2326 23.6671 15.2326 25.5C15.2326 27.3329 16.3974 28.8922 18.0233 29.4701V21.5299ZM31.9767 29.4701C33.6026 28.8922 34.7674 27.3329 34.7674 25.5C34.7674 23.6671 33.6026 22.1078 31.9767 21.5299V29.4701ZM36.8364 11.1649C38.4878 11.3338 39.8665 11.6874 41.0725 12.4977C42.0374 13.1461 42.8659 13.9793 43.5107 14.9497C44.3165 16.1625 44.6681 17.5489 44.8361 19.2097C45 20.8306 45 22.8605 45 25.4222V25.5778C45 28.1395 45 30.1694 44.8361 31.7903C44.6681 33.4511 44.3165 34.8375 43.5107 36.0503C42.8659 37.0207 42.0374 37.8539 41.0725 38.5023C39.8665 39.3126 38.4878 39.6662 36.8364 39.8351C35.2246 40 33.2061 40 30.6588 40H19.3412C16.7939 40 14.7754 40 13.1636 39.8351C11.5122 39.6662 10.1335 39.3126 8.92752 38.5023C7.96258 37.8539 7.13409 37.0207 6.48934 36.0503C5.68352 34.8375 5.33193 33.4511 5.16394 31.7903C4.99997 30.1694 4.99998 28.1396 5 25.5778V25.4222C4.99998 22.8604 4.99997 20.8306 5.16394 19.2097C5.33193 17.5489 5.68352 16.1625 6.48934 14.9497C7.13409 13.9793 7.96258 13.1461 8.92752 12.4977C10.1335 11.6874 11.5122 11.3338 13.1636 11.1649C14.7754 11 16.7939 11 19.3412 11L30.6588 11C33.2061 11 35.2246 11 36.8364 11.1649Z" fill="#4A4A4A"/>
</svg>
