<svg width="50" height="50" viewBox="0 0 50 50" fill="none" xmlns="http://www.w3.org/2000/svg">
<path d="M36.1414 20.9415C37.4009 19.682 37.4009 17.6548 37.4009 13.6005C37.4009 9.54619 37.4009 7.51903 36.1414 6.25952M36.1414 20.9415C34.882 22.201 32.8549 22.201 28.8008 22.201H20.2007C16.1466 22.201 14.1195 22.201 12.86 20.9415M36.1414 20.9415C36.1414 20.9415 36.1414 20.9415 36.1414 20.9415ZM36.1414 6.25952C34.882 5 32.8549 5 28.8008 5L20.2007 5C16.1466 5 14.1195 5 12.86 6.25952M36.1414 6.25952C36.1414 6.25952 36.1414 6.25951 36.1414 6.25952ZM12.86 6.25952C11.6006 7.51903 11.6006 9.54619 11.6006 13.6005C11.6006 17.6548 11.6006 19.682 12.86 20.9415M12.86 6.25952C12.86 6.25952 12.86 6.25952 12.86 6.25952ZM12.86 20.9415C12.86 20.9415 12.86 20.9415 12.86 20.9415Z" stroke="#676767" stroke-width="2.7"/>
<path d="M26.6516 13.6017C26.6516 14.7892 25.689 15.7519 24.5016 15.7519C23.3142 15.7519 22.3516 14.7892 22.3516 13.6017C22.3516 12.4142 23.3142 11.4516 24.5016 11.4516C25.689 11.4516 26.6516 12.4142 26.6516 13.6017Z" stroke="#676767" stroke-width="2.7"/>
<path d="M37.3993 11.4504C33.837 11.4504 30.9492 8.56245 30.9492 5" stroke="#676767" stroke-width="2.7" stroke-linecap="round"/>
<path d="M37.3993 15.7502C33.837 15.7502 30.9492 18.6381 30.9492 22.2006" stroke="#676767" stroke-width="2.7" stroke-linecap="round"/>
<path d="M11.6006 11.4504C15.1629 11.4504 18.0507 8.56245 18.0507 5" stroke="#676767" stroke-width="2.7" stroke-linecap="round"/>
<path d="M11.6006 15.7502C15.1629 15.7502 18.0507 18.6381 18.0507 22.2006" stroke="#676767" stroke-width="2.7" stroke-linecap="round"/>
<path d="M9.44922 42.3835H14.3081C16.4815 42.3835 18.6783 42.61 20.7934 43.0458C24.535 43.8167 28.4744 43.91 32.2544 43.2981C34.1182 42.9964 35.9505 42.5351 37.6091 41.7345C39.1064 41.0118 40.9405 39.9931 42.1724 38.852C43.4026 37.7126 44.6838 35.8478 45.5931 34.3901C46.3729 33.1402 45.9957 31.6067 44.7623 30.6754C43.3923 29.6408 41.3593 29.641 39.9895 30.6758L36.104 33.6111C34.5981 34.7487 32.9532 35.7959 30.9937 36.1085C30.7581 36.146 30.5112 36.1803 30.2536 36.2101M30.2536 36.2101C30.1761 36.2191 30.0976 36.2277 30.0181 36.2359M30.2536 36.2101C30.5671 36.1429 30.8784 35.9496 31.1704 35.6947C32.5533 34.4877 32.6407 32.4534 31.4408 31.1056C31.1624 30.7928 30.8367 30.532 30.4744 30.316C24.4601 26.7286 15.1025 29.4609 9.44922 33.4703M30.2536 36.2101C30.1752 36.2269 30.0966 36.2359 30.0181 36.2359M30.0181 36.2359C28.8928 36.3514 27.5764 36.3813 26.1157 36.2433" stroke="#676767" stroke-width="2.7" stroke-linecap="round"/>
<rect x="3" y="28.6477" width="6.45007" height="17.201" rx="2.7" stroke="#676767" stroke-width="2.7"/>
</svg>
