<svg width="50" height="50" viewBox="0 0 50 50" fill="none" xmlns="http://www.w3.org/2000/svg">
<path d="M8.66534 41H42.0982M30.2834 20.7801L39.2545 18.3443C39.729 18.2055 40.2261 18.1639 40.7166 18.222C41.2072 18.2801 41.6813 18.4368 42.1114 18.6829C42.5415 18.9289 42.9189 19.2594 43.2214 19.655C43.524 20.0506 43.7456 20.5034 43.8734 20.9869C44.0013 21.4704 44.0327 21.9748 43.9658 22.4707C43.899 22.9666 43.7352 23.4441 43.4841 23.8751C43.233 24.3061 42.8997 24.682 42.5035 24.9809C42.1074 25.2798 41.6564 25.4956 41.1769 25.6158L14.2653 32.9248L6 23.4756L11.3808 22.0149L15.9314 24.6765L21.3122 23.2158L14.3601 11.4626L19.7428 10L30.2834 20.7801Z" stroke="#303030" stroke-width="3" stroke-linecap="round" stroke-linejoin="round"/>
</svg>
